P2   
# CREATOR: OLIVER AND FAIYAM
3 3
4
1 2 1 
2 4 2
1 1 1