P2   
# CREATOR: OLIVER AND FAIYAM
3 5  
255     
0 6 9  
6 4 7
9 10 11
3 2 1
7 82 11